<svg xmlns="http://www.w3.org/2000/svg" viewBox="0 0 64 64" role="img" aria-label="AstraQuant AI">
  <defs>
    <linearGradient id="aq-blue" x1="13" y1="54" x2="49" y2="10" gradientUnits="userSpaceOnUse">
      <stop offset="0" stop-color="#006be6" />
      <stop offset="1" stop-color="#2dd4bf" />
    </linearGradient>
    <linearGradient id="aq-violet" x1="8" y1="45" x2="36" y2="8" gradientUnits="userSpaceOnUse">
      <stop offset="0" stop-color="#006be6" />
      <stop offset="1" stop-color="#a66cff" />
    </linearGradient>
  </defs>
  <path
    fill="url(#aq-violet)"
    d="M18.5 10.2c1.4-2.4 4-3.8 6.8-3.8h15.4L23.2 37.1c-1.4 2.4-4 3.9-6.8 3.9H8.7c-3.2 0-5.2-3.5-3.6-6.3l13.4-24.5Z"
  />
  <path
    fill="url(#aq-blue)"
    d="M34.8 24.6c1.4-2.3 3.9-3.7 6.6-3.7h7.4c2.8 0 5.4 1.5 6.8 3.9l7 12.1c1.6 2.8-.4 6.3-3.6 6.3H27.5c-3.1 0-5.1-3.4-3.5-6.1l10.8-12.5Z"
  />
  <path
    fill="#f6f8fb"
    fill-opacity="0.28"
    d="M20.8 40.8 32.1 21c.6-1 2-1 2.6 0l5.3 9.3 3.5-5.9c.6-1 2-1 2.6 0L55 40.8h-9.2l-3.8-6.6-3.8 6.4h-8.1l5-8.5-1.9-3.4-7 12.1h-5.4Z"
  />
  <path
    fill="#0f141c"
    fill-opacity="0.34"
    d="M36.5 21.1h12.2c2.8 0 5.4 1.5 6.8 3.9l7 12.1c1.6 2.8-.4 6.3-3.6 6.3H27.5c-2.2 0-3.9-1.7-4-3.8 12.5.2 22.4-5.7 29.5-17.7-1.2-.6-2.5-.9-4-.9H36.5Z"
    opacity="0.28"
  />
</svg>
